HIERARCHY
ROOT Hips
{
	OFFSET 0.000000 0.000000 0.000000
	CHANNELS 6 Xposition Yposition Zposition Zrotation Yrotation Xrotation 
	JOINT LHipJoint
	{
		OFFSET 0.000000 0.000000 0.000000
		CHANNELS 3 Zrotation Yrotation Xrotation
		JOINT LeftUpLeg
		{
			OFFSET 1.363060 -1.794630 0.839290
			CHANNELS 3 Zrotation Yrotation Xrotation
			JOINT LeftLeg
			{
				OFFSET 2.448110 -6.726130 0.000000
				CHANNELS 3 Zrotation Yrotation Xrotation
				JOINT LeftFoot
				{
					OFFSET 2.562200 -7.039590 0.000000
					CHANNELS 3 Zrotation Yrotation Xrotation
					JOINT LeftToeBase
					{
						OFFSET 0.157640 -0.433110 2.322550
						CHANNELS 3 Zrotation Yrotation Xrotation
						End Site
						{
							OFFSET 0.000000 0.000000 0.000000
						}
					}
				}
			}
		}
	}
	JOINT RHipJoint
	{
		OFFSET 0.000000 0.000000 0.000000
		CHANNELS 3 Zrotation Yrotation Xrotation
		JOINT RightUpLeg
		{
			OFFSET -1.305520 -1.794630 0.839290
			CHANNELS 3 Zrotation Yrotation Xrotation
			JOINT RightLeg
			{
				OFFSET -2.542530 -6.985550 0.000000
				CHANNELS 3 Zrotation Yrotation Xrotation
				JOINT RightFoot
				{
					OFFSET -2.568260 -7.056230 0.000000
					CHANNELS 3 Zrotation Yrotation Xrotation
					JOINT RightToeBase
					{
						OFFSET -0.164730 -0.452590 2.363150
						CHANNELS 3 Zrotation Yrotation Xrotation
						End Site
						{
							OFFSET 0.000000 0.000000 0.000000
						}
					}
				}
			}
		}
	}
	JOINT LowerBack
	{
		OFFSET 0.000000 0.000000 0.000000
		CHANNELS 3 Zrotation Yrotation Xrotation
		JOINT Spine
		{
			OFFSET 0.028270 2.035590 -0.193380
			CHANNELS 3 Zrotation Yrotation Xrotation
			JOINT Spine1
			{
				OFFSET 0.056720 2.048850 -0.042750
				CHANNELS 3 Zrotation Yrotation Xrotation
				JOINT Neck
				{
					OFFSET 0.000000 0.000000 0.000000
					CHANNELS 3 Zrotation Yrotation Xrotation
					JOINT Neck1
					{
						OFFSET -0.054170 1.746240 0.172020
						CHANNELS 3 Zrotation Yrotation Xrotation
						JOINT Head
						{
							OFFSET 0.104070 1.761360 -0.123970
							CHANNELS 3 Zrotation Yrotation Xrotation
							End Site
							{
								OFFSET 0.000000 0.000000 0.000000
							}
						}
					}
				}
				JOINT LeftShoulder
				{
					OFFSET 0.000000 0.000000 0.000000
					CHANNELS 3 Zrotation Yrotation Xrotation
					JOINT LeftArm
					{
						OFFSET 3.362410 1.200890 -0.311210
						CHANNELS 3 Zrotation Yrotation Xrotation
						JOINT LeftForeArm
						{
							OFFSET 4.983000 -0.000000 -0.000000
							CHANNELS 3 Zrotation Yrotation Xrotation
							JOINT LeftHand
							{
								OFFSET 3.483560 -0.000000 -0.000000
								CHANNELS 3 Zrotation Yrotation Xrotation
								JOINT LeftFingerBase
								{
									OFFSET 0.000000 0.000000 0.000000
									CHANNELS 3 Zrotation Yrotation Xrotation
									JOINT LeftHandIndex1
									{
										OFFSET 0.715260 -0.000000 -0.000000
										CHANNELS 3 Zrotation Yrotation Xrotation
										End Site
										{
											OFFSET 0.000000 0.000000 0.000000
										}
									}
								}
								JOINT LThumb
								{
									OFFSET 0.000000 0.000000 0.000000
									CHANNELS 3 Zrotation Yrotation Xrotation
									End Site
									{
										OFFSET 0.000000 0.000000 0.000000
									}
								}
							}
						}
					}
				}
				JOINT RightShoulder
				{
					OFFSET 0.000000 0.000000 0.000000
					CHANNELS 3 Zrotation Yrotation Xrotation
					JOINT RightArm
					{
						OFFSET -3.136600 1.374050 -0.404650
						CHANNELS 3 Zrotation Yrotation Xrotation
						JOINT RightForeArm
						{
							OFFSET -5.241900 -0.000000 -0.000000
							CHANNELS 3 Zrotation Yrotation Xrotation
							JOINT RightHand
							{
								OFFSET -3.444170 -0.000000 -0.000000
								CHANNELS 3 Zrotation Yrotation Xrotation
								JOINT RightFingerBase
								{
									OFFSET 0.000000 0.000000 0.000000
									CHANNELS 3 Zrotation Yrotation Xrotation
									JOINT RightHandIndex1
									{
										OFFSET -0.622530 -0.000000 -0.000000
										CHANNELS 3 Zrotation Yrotation Xrotation
										End Site
										{
											OFFSET 0.000000 0.000000 0.000000
										}
									}
								}
								JOINT RThumb
								{
									OFFSET 0.000000 0.000000 0.000000
									CHANNELS 3 Zrotation Yrotation Xrotation
									End Site
									{
										OFFSET 0.000000 0.000000 0.000000
									}
								}
							}
						}
					}
				}
			}
		}
	}
}
MOTION
Frames: 8
Frame Time: 0.008333
-41.204943 18.029673 -2.596478 -16.188812 77.026354 -11.911854 -2.812739 -0.357530 0.090274 -2.145995 -8.894211 -18.622867 -2.103462 8.285108 23.571774 5.997818 -9.005711 23.738256 0.768300 5.597300 15.620300 4.280732 -2.445337 3.273722 15.520602 15.328972 -0.361700 2.862512 -5.263711 16.080292 1.320701 -6.605186 -5.288012 -0.007400 -0.554100 1.522500 2.316281 -0.180389 13.798899 4.039672 0.292430 6.015252 0.873427 0.987850 -1.389338 -1.049629 5.434197 -5.126071 -0.526215 6.237518 -8.074666 -2.131200 2.712700 -2.203500 -0.846442 -6.050102 0.565417 -82.980306 12.414261 27.426917 30.610541 -40.001970 -14.079738 0.616121 -1.593540 -2.778924 1.604140 8.662345 0.191100 -7.125000 0.000000 0.000000 -22.322800 39.246300 3.362900 1.892621 6.114656 2.302930 70.035042 -9.733476 36.589185 -33.354691 39.556136 -12.770615 0.635544 0.189580 1.847497 -7.339026 -14.751214 2.066800 7.125000 0.000000 0.000000 17.970300 -44.285900 0.327800 
-41.203813 18.025975 -2.600074 -16.223011 77.051214 -11.916868 -2.800953 -0.378764 0.074647 -2.161188 -8.840611 -18.721494 -2.094156 8.321238 23.685373 6.009666 -9.062703 23.950746 0.791700 5.679800 15.858100 4.281108 -2.431061 3.266744 15.507325 15.306745 -0.439197 2.847456 -5.299739 16.181583 1.311376 -6.583255 -5.336706 -0.007600 -0.561300 1.542300 2.332624 -0.197522 13.834907 4.037955 0.274248 6.031835 0.869622 0.980893 -1.375437 -0.960707 5.480744 -5.069710 -0.595298 6.291417 -8.212200 -2.169400 2.736500 -2.251100 -0.846388 -6.053393 0.568891 -82.942330 12.422016 27.492678 30.670945 -40.049294 -14.125127 0.618023 -1.594219 -2.816617 1.574965 8.638689 0.185300 -7.125000 0.000000 0.000000 -22.340300 39.223000 3.379600 1.891875 6.113596 2.301703 70.065410 -9.697946 36.506330 -33.300967 39.516110 -12.739194 0.639734 0.193287 1.955419 -7.255877 -14.849209 2.059700 7.125000 0.000000 0.000000 18.075100 -44.375400 0.288400 
-41.203710 18.020119 -2.603670 -16.389190 77.092808 -12.060262 -2.777614 -0.401495 0.053626 -2.155273 -8.821605 -18.827898 -2.081897 8.369883 23.842029 6.055709 -9.251769 24.130935 0.823700 5.790800 16.178600 4.285151 -2.414493 3.262566 15.518402 15.262265 -0.514537 2.832978 -5.332209 16.275452 1.313896 -6.591899 -5.378111 -0.006000 -0.501300 1.377500 2.341644 -0.236814 13.929360 4.046019 0.233570 6.038931 0.897517 0.955459 -1.423360 -0.413019 5.404337 -5.425336 -1.130595 6.221938 -7.950128 -2.416300 2.704900 -2.101300 -0.846023 -6.010457 0.569839 -82.937974 12.477150 27.530167 30.754060 -40.114542 -14.188823 0.621487 -1.595897 -2.846924 1.496532 8.634720 0.170900 -7.125000 0.000000 0.000000 -22.405900 39.214400 3.395900 1.892567 6.151806 2.316454 70.061945 -9.698405 36.475653 -33.266005 39.492133 -12.715025 0.634257 0.190067 1.896686 -7.283908 -14.712578 2.046900 7.125000 0.000000 0.000000 18.007500 -44.243900 0.347800 
-41.203402 18.015085 -2.607471 -16.615415 77.141217 -12.240536 -2.741319 -0.424375 0.015247 -2.162595 -8.775967 -18.968044 -2.033993 8.447724 24.038114 6.133649 -9.597958 23.487052 0.680800 5.275400 14.695900 4.289481 -2.404690 3.262878 15.538117 15.226573 -0.602334 2.820826 -5.360679 16.351580 1.343340 -6.667635 -5.364172 -0.003000 -0.356200 0.978600 2.356401 -0.234238 13.903639 4.075924 0.239699 6.081492 0.927948 0.959889 -1.337195 -0.333297 5.427004 -5.271525 -1.226256 6.232095 -8.211554 -2.464700 2.706700 -2.206200 -0.846918 -6.023238 0.574060 -82.900453 12.444836 27.671177 30.819908 -40.163465 -14.234445 0.622477 -1.595654 -2.865051 1.507224 8.592127 0.172000 -7.125000 0.000000 0.000000 -22.384100 39.175700 3.414900 1.892023 6.142969 2.313456 70.075640 -9.672066 36.332853 -33.292741 39.509705 -12.737292 0.635069 0.189844 1.881725 -7.293633 -14.730421 2.052000 7.125000 0.000000 0.000000 18.004000 -44.261600 0.339600 
-41.200114 18.008921 -2.612916 -17.382472 77.175631 -12.948431 -2.697872 -0.462386 -0.016942 -2.043530 -8.798570 -19.086000 -2.008864 8.497223 24.212255 6.150463 -9.658766 23.851157 0.744700 5.512300 15.375800 4.302409 -2.393460 3.261485 15.663896 15.160478 -0.695026 2.813189 -5.389311 16.424338 1.338098 -6.654427 -5.393638 -0.001300 -0.237000 0.651300 2.485809 -0.259758 13.974823 4.137052 0.233978 6.076481 0.934532 0.959103 -1.350927 -0.392501 5.516490 -5.023087 -1.214885 6.324089 -8.552570 -2.459600 2.749100 -2.350800 -0.845674 -6.042074 0.576008 -82.897649 12.506659 27.771616 30.886567 -40.219700 -14.285492 0.625145 -1.596481 -2.874703 1.446117 8.570505 0.160400 -7.125000 0.000000 0.000000 -22.429700 39.151400 3.437100 1.890997 6.120413 2.308141 70.060483 -9.723585 36.253906 -33.316296 39.527312 -12.757995 0.637206 0.193142 1.906424 -7.256109 -14.799833 2.052400 7.125000 0.000000 0.000000 18.060000 -44.327400 0.310400 
-41.198060 18.002757 -2.617744 -17.871602 77.222076 -13.395207 -2.658194 -0.492614 -0.054102 -1.992621 -8.806826 -19.212523 -1.969934 8.570903 24.428396 6.190579 -9.846258 23.802384 0.732000 5.466200 15.243100 4.310064 -2.384367 3.264815 15.732333 15.098510 -0.773463 2.805153 -5.411459 16.483684 1.345949 -6.674730 -5.403744 -0.000400 -0.134800 0.370300 2.557720 -0.284570 14.032819 4.174384 0.219085 6.087389 0.949046 0.952173 -1.348352 -0.271228 5.550835 -4.938970 -1.357621 6.358127 -8.738202 -2.528200 2.764000 -2.418700 -0.845282 -6.044976 0.578473 -82.881608 12.545089 27.868283 30.957317 -40.276286 -14.338254 0.627294 -1.597079 -2.894269 1.411507 8.544889 0.153600 -7.125000 0.000000 0.000000 -22.451500 39.125500 3.456200 1.890473 6.115656 2.307945 70.058964 -9.737050 36.166934 -33.315590 39.526638 -12.761320 0.637690 0.193797 1.903402 -7.249836 -14.812611 2.052700 7.125000 0.000000 0.000000 18.069600 -44.339600 0.304900 
-41.195388 17.996182 -2.623086 -18.448625 77.271281 -13.927979 -2.614324 -0.524679 -0.095430 -1.929440 -8.829267 -19.342771 -1.924781 8.652291 24.665902 6.228380 -10.030179 23.742423 0.708900 5.381200 14.999100 4.318472 -2.377039 3.270868 15.815619 15.027423 -0.849299 2.799181 -5.429425 16.531286 1.353701 -6.694460 -5.410201 -0.000000 -0.030000 0.082400 2.641176 -0.311544 14.094518 4.217318 0.204228 6.097428 0.964102 0.945121 -1.347378 -0.150922 5.586831 -4.841295 -1.506062 6.392947 -8.941110 -2.599300 2.779400 -2.494600 -0.844936 -6.048645 0.580868 -82.867494 12.589955 27.969399 31.027998 -40.333043 -14.390988 0.629290 -1.597731 -2.914806 1.380808 8.524306 0.147700 -7.125000 0.000000 0.000000 -22.471500 39.104700 3.472000 1.889937 6.109581 2.307602 70.054113 -9.756087 36.077165 -33.316704 39.527408 -12.766095 0.638270 0.194206 1.891132 -7.253025 -14.825365 2.055400 7.125000 0.000000 0.000000 18.070800 -44.352500 0.299000 
-41.191998 17.989196 -2.628737 -19.095243 77.323629 -14.528797 -2.569809 -0.557825 -0.138097 -1.856034 -8.865542 -19.469763 -1.877029 8.734200 24.905021 6.261548 -10.198336 23.679668 0.677900 5.264500 14.664500 4.326402 -2.369947 3.276841 15.911156 14.949267 -0.930755 2.791891 -5.451621 16.589270 1.358477 -6.707139 -5.427020 -0.000100 0.071900 -0.197600 2.733798 -0.340916 14.160239 4.263068 0.188156 6.105746 0.977218 0.937420 -1.348594 -0.046557 5.626978 -4.722395 -1.641264 6.431328 -9.167831 -2.664600 2.796600 -2.582200 -0.844692 -6.054430 0.583275 -82.853568 12.639601 28.069897 31.094363 -40.386657 -14.440444 0.631027 -1.598349 -2.935963 1.356929 8.507049 0.143000 -7.125000 0.000000 0.000000 -22.486800 39.087500 3.484800 1.889359 6.101280 2.306475 70.050094 -9.774643 35.981889 -33.308411 39.520992 -12.764850 0.639065 0.194508 1.887381 -7.256127 -14.840434 2.058500 7.125000 0.000000 0.000000 18.072500 -44.367400 0.292100 
